<?xml version="1.0" standalone="no"?>
<!DOCTYPE svg PUBLIC "-//W3C//DTD SVG 20010904//EN"
 "http://www.w3.org/TR/2001/REC-SVG-20010904/DTD/svg10.dtd">
<svg version="1.0" xmlns="http://www.w3.org/2000/svg"
 width="300.000000pt" height="300.000000pt" viewBox="0 0 300.000000 300.000000"
 preserveAspectRatio="xMidYMid meet">
<metadata>
Created by potrace 1.14, written by Peter Selinger 2001-2017
</metadata>
<g transform="translate(0.000000,300.000000) scale(0.100000,-0.100000)"
fill="#000000" stroke="none">
<path d="M1320 2997 c-3 -3 -25 -7 -50 -10 -54 -7 -248 -54 -264 -64 -6 -4
-16 -8 -22 -9 -34 -5 -225 -101 -304 -153 -121 -79 -282 -224 -343 -308 -17
-24 -34 -43 -37 -43 -4 0 -13 -14 -20 -30 -7 -17 -18 -34 -25 -38 -6 -4 -31
-43 -55 -87 -23 -44 -47 -84 -51 -89 -5 -6 -9 -18 -9 -28 0 -10 -4 -18 -10
-18 -5 0 -10 -8 -10 -18 0 -10 -4 -22 -9 -27 -6 -8 -59 -153 -66 -185 -1 -3
-5 -23 -10 -45 -4 -22 -9 -49 -12 -60 -19 -93 -23 -152 -22 -301 1 -162 16
-281 48 -382 5 -18 11 -36 12 -40 27 -105 112 -287 182 -392 196 -293 461
-495 797 -607 41 -14 86 -27 100 -29 14 -3 41 -10 60 -16 19 -6 139 -13 265
-15 229 -5 290 1 445 42 88 23 301 111 308 127 2 5 8 8 14 8 13 0 196 122 233
155 140 127 186 178 275 304 50 69 134 226 171 316 14 36 48 142 54 169 3 14
8 38 11 54 3 15 9 45 14 67 12 54 12 464 -1 507 -5 18 -11 50 -14 70 -11 85
-129 390 -159 410 -6 4 -8 8 -3 8 8 0 -109 174 -150 221 -76 89 -224 226 -272
253 -9 5 -18 12 -21 15 -5 6 -48 35 -85 58 -37 22 -223 115 -237 117 -7 2 -20
6 -28 9 -50 21 -162 52 -220 62 -19 3 -48 9 -65 14 -32 8 -407 16 -415 8z"/>
</g>
</svg>
